<?xml version="1.0" encoding="UTF-8" standalone="no"?>
<svg width="39px" height="29px" viewBox="0 0 39 29" version="1.1" xmlns="http://www.w3.org/2000/svg" xmlns:xlink="http://www.w3.org/1999/xlink">
    <!-- Generator: Sketch 3.8.3 (29802) - http://www.bohemiancoding.com/sketch -->
    <title>Shape</title>
    <desc>Created with Sketch.</desc>
    <defs></defs>
    <g id="Welcome" stroke="none" stroke-width="1" fill="none" fill-rule="evenodd">
        <g id="Desktop" transform="translate(-609.000000, -497.000000)" fill="#334042">
            <g id="cloud107" transform="translate(609.000000, 497.000000)">
                <path d="M36.8031923,16.1182551 C35.7040846,14.7345227 34.2994269,13.8376319 32.58825,13.4270954 C33.1281115,12.6062661 33.3975577,11.6925541 33.3975577,10.6862032 C33.3975577,9.28248026 32.9039769,8.08426937 31.9170577,7.09108297 C30.9301385,6.09814035 29.7391962,5.60154715 28.3439885,5.60154715 C27.0936808,5.60154715 26.0013577,6.0120837 25.0670192,6.8331568 C24.2909077,4.92625841 23.05005,3.39698538 21.3459,2.24509393 C19.64175,1.0929587 17.7628962,0.516891082 15.7095808,0.516891082 C12.91965,0.516891082 10.5372808,1.51032127 8.5632,3.49645029 C6.58887692,5.48233553 5.60195769,7.87924488 5.60195769,10.686447 C5.60195769,10.8585603 5.61528462,11.143303 5.64145385,11.5404313 C4.08850385,12.2686217 2.85152308,13.3610292 1.93002692,14.8174101 C1.00877308,16.2742785 0.548146154,17.8627917 0.548146154,19.5846561 C0.548146154,22.0342233 1.41366923,24.1295687 3.14423077,25.8706923 C4.87479231,27.6123034 6.95766923,28.4828651 9.39237692,28.4828651 L30.8717423,28.4828651 C32.9640692,28.4828651 34.7506038,27.7376096 36.2313462,26.2483176 C37.7118462,24.7587818 38.4523385,22.9613436 38.4523385,20.8557591 C38.4520962,19.0814806 37.9025423,17.5024751 36.8031923,16.1182551 L36.8031923,16.1182551 Z M25.6202077,16.8830135 L18.6906923,23.8550651 C18.5724462,23.9740329 18.4210038,24.0337606 18.2366077,24.0337606 C18.0524538,24.0337606 17.9010115,23.9740329 17.7825231,23.8550651 L10.8336231,16.8635106 C10.7151346,16.744299 10.6560115,16.5921762 10.6560115,16.4066546 C10.6560115,16.2345413 10.7182846,16.0855877 10.8433154,15.9597939 C10.9685885,15.834 11.1163962,15.7711031 11.2874654,15.7711031 L15.7095808,15.7711031 L15.7095808,8.7797924 C15.7095808,8.60767909 15.7720962,8.45872551 15.8971269,8.33268787 C16.0221577,8.20713779 16.1702077,8.14424086 16.3412769,8.14424086 L20.1319385,8.14424086 C20.30325,8.14424086 20.4508154,8.20689401 20.5763308,8.33268787 C20.7011192,8.45872551 20.7636346,8.60767909 20.7636346,8.7797924 L20.7636346,15.7711031 L25.18575,15.7711031 C25.3699038,15.7711031 25.5213462,15.8308308 25.6395923,15.9497986 C25.7580808,16.0687664 25.8169615,16.221133 25.8169615,16.4066546 C25.8169615,16.566091 25.7515385,16.7245523 25.6202077,16.8830135 L25.6202077,16.8830135 Z" id="Shape"></path>
            </g>
        </g>
    </g>
</svg>